<svg xmlns="http://www.w3.org/2000/svg" viewBox="0 0 512 512">
  <path d="M71 148c0-21 17-38 38-38s38 17 38 38-17 38-38 38-38-17-38-38zm332 0c0-21 17-38 38-38s38 17 38 38-17 38-38 38-38-17-38-38zM255.8 62c21 0 38 17 38 38s-17 38-38 38-38-17-38-38 17-38 38-38zM93.5 351.5l58.9-154.4c5.3-13.8 25.7-11.6 28.8 3l22.8 108.8 47.4-276.4c2.2-13 19.9-12.8 22 .2l46.8 284.5 21.9-142c3-19.4 30.1-19.9 33.7-.7L423 351.3c3.6 18.9-11.3 36.5-30.5 36.5H124c-19.2 0-34.2-17.5-30.5-36.3zM112 432c-8.8 0-16-7.2-16-16s7.2-16 16-16h288c8.8 0 16 7.2 16 16s-7.2 16-16 16H112z" fill="#ffd700" stroke="#000" stroke-width="16"/>
  <path d="M112 432v16c0 8.8 7.2 16 16 16h256c8.8 0 16-7.2 16-16v-16H112z" fill="#ffa500" stroke="#000" stroke-width="16"/>
</svg>
