<svg xmlns="http://www.w3.org/2000/svg" viewBox="0 0 512 512">
  <path d="M489.9 149.1l-96 224c-5.3 13.1-18.4 20.9-31.9 20.9H150c-13.5 0-26.6-7.8-31.9-20.9l-96-224C11.7 122.3 32 96 65.1 96c15.3 0 29.7 8.3 35.9 22.1L156 192l60.4-130.8c4.9-10.5 15.6-17.2 27.3-17.2 11.7 0 22.4 6.7 27.3 17.2L331.4 192l54.9-73.9c6.3-13.8 20.7-22.1 35.9-22.1 33.1 0 53.4 26.3 43.2 53.1z" fill="#FFD700"/>
  <path d="M349 405c0 5.5-4.5 10-10 10H173c-5.5 0-10-4.5-10-10v-10c0-5.5 4.5-10 10-10h166c5.5 0 10 4.5 10 10v10z" fill="#F59A23"/>
  <circle cx="250" cy="220" r="30" fill="#3CB878"/>
  <circle cx="80" cy="130" r="25" fill="#E57373"/>
  <circle cx="250" cy="80" r="25" fill="#FFC107"/>
  <circle cx="420" cy="130" r="25" fill="#E57373"/>
</svg>
