<svg xmlns="http://www.w3.org/2000/svg" viewBox="0 0 64 64"><circle cx="32" cy="32" r="30" fill="#1A1A1A" stroke="#444" stroke-width="2"/><path fill="gold" stroke="#000" d="M16 22c0-2 2-4 4-4s4 2 4 4-2 4-4 4-4-2-4-4zm24 0c0-2 2-4 4-4s4 2 4 4-2 4-4 4-4-2-4-4zm-8-6c2 0 4 2 4 4s-2 4-4 4-4-2-4-4 2-4 4-4zM18 38l6-14 2 10 6-20 6 20 2-10 6 14c1 4-2 6-4 6H22c-2 0-5-2-4-6z"/><circle cx="24" cy="22" r="3" fill="#FF6B6B"/><circle cx="32" cy="16" r="3" fill="#FF6B6B"/><circle cx="40" cy="22" r="3" fill="#FF6B6B"/><path fill="none" stroke="#FFF" stroke-linecap="round" stroke-width="2" d="M24 40s4 8 16 0"/><path fill="#FFF" d="M24 34h4v4h-4zM36 34h4v4h-4z"/></svg>